<?xml version="1.0" standalone="no"?><!DOCTYPE svg PUBLIC "-//W3C//DTD SVG 1.1//EN" "http://www.w3.org/Graphics/SVG/1.1/DTD/svg11.dtd"><svg t="1721200819356" class="icon" viewBox="0 0 1024 1024" version="1.1" xmlns="http://www.w3.org/2000/svg" p-id="7265" xmlns:xlink="http://www.w3.org/1999/xlink" width="200" height="200"><path d="M944.263968 79.723233a271.983271 271.983271 0 0 0-384.739928 0l-119.051032 118.840216 55.173663 55.173663a646.694362 646.694362 0 0 0-109.052312 147.872645 744.212005 744.212005 0 0 0-55.655529 140.795238 1202.466622 1202.466622 0 0 0-163.834459 55.38448 510.808134 510.808134 0 0 0-158.262882 106.070765L0.017317 712.684412l54.360514 54.390631 8.884406-8.854289c70.65361-70.65361 155.16087-102.54712 243.462824-128.778703-3.433296 12.317701-7.107524 24.996802-11.082919 37.856602a699.247878 699.247878 0 0 0-134.07923 61.949905 791.886627 791.886627 0 0 0-152.691306 121.400129L0.017317 859.472859l54.360514 54.390631 8.884406-8.824172A672.654895 672.654895 0 0 1 259.020321 764.966879a671.209297 671.209297 0 0 1-139.982088 195.758085l-8.854289 8.854288L164.484225 1023.969883l8.824172-8.854288a791.736044 791.736044 0 0 0 121.370012-152.721423 699.247878 699.247878 0 0 0 61.919788-134.049113 1654.005232 1654.005232 0 0 1 37.856602-11.022686c-26.2617 88.332071-58.155209 172.83933-128.748586 243.432707l-8.824172 8.854289L311.272672 1023.969883l8.824172-8.854288a511.4707 511.4707 0 0 0 105.950299-158.262883 1211.140211 1211.140211 0 0 0 55.444712-163.834458 744.212005 744.212005 0 0 0 140.795238-55.685646 646.694362 646.694362 0 0 0 147.872646-109.052312l55.053196 55.173664 118.930566-118.960683a272.043504 272.043504 0 0 0 0.120467-384.770044zM429.811721 594.024896c-3.704345 12.438168-7.258107 24.755869-10.661286 36.682054l-16.08228 4.397027-19.726392 5.420993 5.240294-19.334875v-0.421633l3.011663-11.233502 1.325131-4.878894c13.281433-3.674229 25.297968-7.137641 36.89287-10.63117z m139.25929-266.833327a531.859658 531.859658 0 0 0-108.419862 176.302742c-12.287584 4.276561-25.448551 8.553122-40.747799 13.251317a556.193893 556.193893 0 0 1 130.043602-208.648002z m0 127.664387a409.766846 409.766846 0 0 1 54.420747-73.183407l18.76266 18.883126a409.586146 409.586146 0 0 1-73.183407 54.209931z m146.728213 18.94336a554.145963 554.145963 0 0 1-208.648001 130.224301c4.457261-14.516215 8.884405-28.038581 13.31155-40.777915a531.980124 531.980124 0 0 0 176.272626-108.419862z m231.17524-201.781411a193.860737 193.860737 0 0 1-57.221594 138.024508L825.212935 474.582348l-275.868316-276.018899 64.570052-64.570052a195.095519 195.095519 0 0 1 333.059793 138.024508z" fill="#00FDFF" p-id="7266"></path></svg>